<mxfile host="app.diagrams.net" agent="Mozilla/5.0 (Macintosh; Intel Mac OS X 10_15_7) AppleWebKit/537.36 (KHTML, like Gecko) Chrome/129.0.0.0 Safari/537.36" version="24.7.17">
  <diagram name="Page-1" id="0783ab3e-0a74-02c8-0abd-f7b4e66b4bec">
    <mxGraphModel dx="1434" dy="785" grid="1" gridSize="10" guides="1" tooltips="1" connect="1" arrows="1" fold="1" page="1" pageScale="1" pageWidth="850" pageHeight="1100" background="none" math="0" shadow="0">
      <root>
        <mxCell id="0" />
        <mxCell id="1" parent="0" />
        <mxCell id="1c1d494c118603dd-1" value="" style="swimlane;html=1;childLayout=stackLayout;startSize=20;rounded=0;shadow=0;comic=0;labelBackgroundColor=none;strokeWidth=1;fontFamily=Verdana;fontSize=12;align=center;" parent="1" vertex="1">
          <mxGeometry x="40" y="20" width="750" height="1150" as="geometry" />
        </mxCell>
        <mxCell id="1c1d494c118603dd-2" value="Patient" style="swimlane;html=1;startSize=20;" parent="1c1d494c118603dd-1" vertex="1">
          <mxGeometry y="20" width="250" height="1130" as="geometry" />
        </mxCell>
        <mxCell id="MPAdA7pHePFHHVDjgnxd-66" style="edgeStyle=orthogonalEdgeStyle;rounded=0;orthogonalLoop=1;jettySize=auto;html=1;exitX=0.5;exitY=1;exitDx=0;exitDy=0;entryX=0.5;entryY=0;entryDx=0;entryDy=0;" parent="1c1d494c118603dd-2" source="60571a20871a0731-4" target="KbDHJAMVQJwJWBfrR8Hl-14" edge="1">
          <mxGeometry relative="1" as="geometry" />
        </mxCell>
        <mxCell id="60571a20871a0731-4" value="" style="ellipse;whiteSpace=wrap;html=1;rounded=0;shadow=0;comic=0;labelBackgroundColor=none;strokeWidth=1;fillColor=#000000;fontFamily=Verdana;fontSize=12;align=center;" parent="1c1d494c118603dd-2" vertex="1">
          <mxGeometry x="100" y="30" width="40" height="40" as="geometry" />
        </mxCell>
        <mxCell id="KbDHJAMVQJwJWBfrR8Hl-14" value="Login" style="rounded=1;whiteSpace=wrap;html=1;shadow=0;comic=0;labelBackgroundColor=none;strokeWidth=1;fontFamily=Verdana;fontSize=12;align=center;arcSize=50;" parent="1c1d494c118603dd-2" vertex="1">
          <mxGeometry x="70" y="90" width="100" height="30" as="geometry" />
        </mxCell>
        <mxCell id="KbDHJAMVQJwJWBfrR8Hl-15" value="" style="endArrow=classic;html=1;rounded=0;exitX=1;exitY=0.75;exitDx=0;exitDy=0;" parent="1c1d494c118603dd-2" source="KbDHJAMVQJwJWBfrR8Hl-14" edge="1">
          <mxGeometry width="50" height="50" relative="1" as="geometry">
            <mxPoint x="170" y="164.41" as="sourcePoint" />
            <mxPoint x="320" y="113" as="targetPoint" />
          </mxGeometry>
        </mxCell>
        <mxCell id="KbDHJAMVQJwJWBfrR8Hl-19" value="Register for Triage" style="rounded=1;whiteSpace=wrap;html=1;shadow=0;comic=0;labelBackgroundColor=none;strokeWidth=1;fontFamily=Verdana;fontSize=12;align=center;arcSize=50;" parent="1c1d494c118603dd-2" vertex="1">
          <mxGeometry x="120" y="270" width="100" height="30" as="geometry" />
        </mxCell>
        <mxCell id="MPAdA7pHePFHHVDjgnxd-40" style="edgeStyle=orthogonalEdgeStyle;rounded=0;orthogonalLoop=1;jettySize=auto;html=1;entryX=0.5;entryY=1;entryDx=0;entryDy=0;" parent="1c1d494c118603dd-2" source="MPAdA7pHePFHHVDjgnxd-41" target="KbDHJAMVQJwJWBfrR8Hl-14" edge="1">
          <mxGeometry relative="1" as="geometry">
            <mxPoint x="120" y="230" as="sourcePoint" />
          </mxGeometry>
        </mxCell>
        <mxCell id="MPAdA7pHePFHHVDjgnxd-44" style="edgeStyle=orthogonalEdgeStyle;rounded=0;orthogonalLoop=1;jettySize=auto;html=1;exitX=0;exitY=0.5;exitDx=0;exitDy=0;entryX=1;entryY=0.5;entryDx=0;entryDy=0;" parent="1c1d494c118603dd-2" source="MPAdA7pHePFHHVDjgnxd-41" target="MPAdA7pHePFHHVDjgnxd-43" edge="1">
          <mxGeometry relative="1" as="geometry" />
        </mxCell>
        <mxCell id="MPAdA7pHePFHHVDjgnxd-41" value="" style="rhombus;whiteSpace=wrap;html=1;" parent="1c1d494c118603dd-2" vertex="1">
          <mxGeometry x="160" y="170" width="50" height="40" as="geometry" />
        </mxCell>
        <mxCell id="MPAdA7pHePFHHVDjgnxd-42" value="Try Login Again?" style="text;html=1;align=center;verticalAlign=middle;whiteSpace=wrap;rounded=0;" parent="1c1d494c118603dd-2" vertex="1">
          <mxGeometry x="170" y="210" width="70" height="30" as="geometry" />
        </mxCell>
        <mxCell id="MPAdA7pHePFHHVDjgnxd-50" style="edgeStyle=orthogonalEdgeStyle;rounded=0;orthogonalLoop=1;jettySize=auto;html=1;exitX=0.124;exitY=1.014;exitDx=0;exitDy=0;entryX=0.5;entryY=0;entryDx=0;entryDy=0;exitPerimeter=0;" parent="1c1d494c118603dd-2" source="MPAdA7pHePFHHVDjgnxd-43" target="MPAdA7pHePFHHVDjgnxd-49" edge="1">
          <mxGeometry relative="1" as="geometry">
            <Array as="points">
              <mxPoint x="50" y="205" />
              <mxPoint x="50" y="250" />
            </Array>
          </mxGeometry>
        </mxCell>
        <mxCell id="MPAdA7pHePFHHVDjgnxd-43" value="Close Login" style="rounded=1;whiteSpace=wrap;html=1;shadow=0;comic=0;labelBackgroundColor=none;strokeWidth=1;fontFamily=Verdana;fontSize=12;align=center;arcSize=50;" parent="1c1d494c118603dd-2" vertex="1">
          <mxGeometry x="10" y="175" width="100" height="30" as="geometry" />
        </mxCell>
        <mxCell id="MPAdA7pHePFHHVDjgnxd-45" value="No" style="text;html=1;align=center;verticalAlign=middle;whiteSpace=wrap;rounded=0;" parent="1c1d494c118603dd-2" vertex="1">
          <mxGeometry x="100" y="190" width="70" height="30" as="geometry" />
        </mxCell>
        <mxCell id="MPAdA7pHePFHHVDjgnxd-47" value="Yes" style="text;html=1;align=center;verticalAlign=middle;whiteSpace=wrap;rounded=0;" parent="1c1d494c118603dd-2" vertex="1">
          <mxGeometry x="120" y="120" width="70" height="30" as="geometry" />
        </mxCell>
        <mxCell id="MPAdA7pHePFHHVDjgnxd-49" value="" style="shape=mxgraph.bpmn.shape;html=1;verticalLabelPosition=bottom;labelBackgroundColor=#ffffff;verticalAlign=top;perimeter=ellipsePerimeter;outline=end;symbol=terminate;rounded=0;shadow=0;comic=0;strokeWidth=1;fontFamily=Verdana;fontSize=12;align=center;" parent="1c1d494c118603dd-2" vertex="1">
          <mxGeometry x="30" y="265" width="40" height="40" as="geometry" />
        </mxCell>
        <mxCell id="MPAdA7pHePFHHVDjgnxd-85" value="Patient closes the portal" style="text;html=1;align=center;verticalAlign=middle;whiteSpace=wrap;rounded=0;" parent="1c1d494c118603dd-2" vertex="1">
          <mxGeometry x="15" y="320" width="70" height="30" as="geometry" />
        </mxCell>
        <mxCell id="MPAdA7pHePFHHVDjgnxd-95" style="edgeStyle=orthogonalEdgeStyle;rounded=0;orthogonalLoop=1;jettySize=auto;html=1;" parent="1c1d494c118603dd-2" source="MPAdA7pHePFHHVDjgnxd-93" edge="1">
          <mxGeometry relative="1" as="geometry">
            <mxPoint x="120" y="589.9999999999998" as="targetPoint" />
          </mxGeometry>
        </mxCell>
        <mxCell id="MPAdA7pHePFHHVDjgnxd-93" value="Patient Notified&lt;div&gt;with other procedure&lt;/div&gt;" style="rounded=1;whiteSpace=wrap;html=1;shadow=0;comic=0;labelBackgroundColor=none;strokeWidth=1;fontFamily=Verdana;fontSize=12;align=center;arcSize=50;" parent="1c1d494c118603dd-2" vertex="1">
          <mxGeometry x="62.5" y="500" width="115" height="60" as="geometry" />
        </mxCell>
        <mxCell id="MPAdA7pHePFHHVDjgnxd-94" value="" style="shape=mxgraph.bpmn.shape;html=1;verticalLabelPosition=bottom;labelBackgroundColor=#ffffff;verticalAlign=top;perimeter=ellipsePerimeter;outline=end;symbol=terminate;rounded=0;shadow=0;comic=0;strokeWidth=1;fontFamily=Verdana;fontSize=12;align=center;" parent="1c1d494c118603dd-2" vertex="1">
          <mxGeometry x="100" y="600" width="40" height="40" as="geometry" />
        </mxCell>
        <mxCell id="MPAdA7pHePFHHVDjgnxd-96" value="Patient is helped" style="text;html=1;align=center;verticalAlign=middle;whiteSpace=wrap;rounded=0;" parent="1c1d494c118603dd-2" vertex="1">
          <mxGeometry x="30" y="605" width="70" height="30" as="geometry" />
        </mxCell>
        <mxCell id="MPAdA7pHePFHHVDjgnxd-108" style="edgeStyle=orthogonalEdgeStyle;rounded=0;orthogonalLoop=1;jettySize=auto;html=1;" parent="1c1d494c118603dd-2" source="MPAdA7pHePFHHVDjgnxd-107" edge="1">
          <mxGeometry relative="1" as="geometry">
            <mxPoint x="182.5" y="779.9999999999998" as="targetPoint" />
          </mxGeometry>
        </mxCell>
        <mxCell id="MPAdA7pHePFHHVDjgnxd-107" value="Refer Patient to other Hospital" style="rounded=1;whiteSpace=wrap;html=1;shadow=0;comic=0;labelBackgroundColor=none;strokeWidth=1;fontFamily=Verdana;fontSize=12;align=center;arcSize=50;" parent="1c1d494c118603dd-2" vertex="1">
          <mxGeometry x="130" y="690" width="105" height="40" as="geometry" />
        </mxCell>
        <mxCell id="MPAdA7pHePFHHVDjgnxd-109" value="" style="shape=mxgraph.bpmn.shape;html=1;verticalLabelPosition=bottom;labelBackgroundColor=#ffffff;verticalAlign=top;perimeter=ellipsePerimeter;outline=end;symbol=terminate;rounded=0;shadow=0;comic=0;strokeWidth=1;fontFamily=Verdana;fontSize=12;align=center;" parent="1c1d494c118603dd-2" vertex="1">
          <mxGeometry x="165" y="780" width="40" height="40" as="geometry" />
        </mxCell>
        <mxCell id="MPAdA7pHePFHHVDjgnxd-110" value="Patient went to other Hospital" style="text;html=1;align=center;verticalAlign=middle;whiteSpace=wrap;rounded=0;" parent="1c1d494c118603dd-2" vertex="1">
          <mxGeometry x="90" y="780" width="70" height="30" as="geometry" />
        </mxCell>
        <mxCell id="MPAdA7pHePFHHVDjgnxd-127" value="Patient Notified to Come" style="rounded=1;whiteSpace=wrap;html=1;shadow=0;comic=0;labelBackgroundColor=none;strokeWidth=1;fontFamily=Verdana;fontSize=12;align=center;arcSize=50;" parent="1c1d494c118603dd-2" vertex="1">
          <mxGeometry x="100" y="870" width="100" height="30" as="geometry" />
        </mxCell>
        <mxCell id="MPAdA7pHePFHHVDjgnxd-135" style="edgeStyle=orthogonalEdgeStyle;rounded=0;orthogonalLoop=1;jettySize=auto;html=1;exitX=0.5;exitY=1;exitDx=0;exitDy=0;entryX=0.5;entryY=0;entryDx=0;entryDy=0;" parent="1c1d494c118603dd-2" source="MPAdA7pHePFHHVDjgnxd-133" target="MPAdA7pHePFHHVDjgnxd-134" edge="1">
          <mxGeometry relative="1" as="geometry" />
        </mxCell>
        <mxCell id="MPAdA7pHePFHHVDjgnxd-133" value="Receive Prescription" style="rounded=1;whiteSpace=wrap;html=1;shadow=0;comic=0;labelBackgroundColor=none;strokeWidth=1;fontFamily=Verdana;fontSize=12;align=center;arcSize=50;" parent="1c1d494c118603dd-2" vertex="1">
          <mxGeometry x="75" y="1030" width="105" height="30" as="geometry" />
        </mxCell>
        <mxCell id="MPAdA7pHePFHHVDjgnxd-134" value="" style="shape=mxgraph.bpmn.shape;html=1;verticalLabelPosition=bottom;labelBackgroundColor=#ffffff;verticalAlign=top;perimeter=ellipsePerimeter;outline=end;symbol=terminate;rounded=0;shadow=0;comic=0;strokeWidth=1;fontFamily=Verdana;fontSize=12;align=center;" parent="1c1d494c118603dd-2" vertex="1">
          <mxGeometry x="100" y="1080" width="40" height="40" as="geometry" />
        </mxCell>
        <mxCell id="MPAdA7pHePFHHVDjgnxd-136" value="Patient successfully treated" style="text;html=1;align=center;verticalAlign=middle;whiteSpace=wrap;rounded=0;" parent="1c1d494c118603dd-2" vertex="1">
          <mxGeometry x="20" y="1080" width="70" height="30" as="geometry" />
        </mxCell>
        <mxCell id="1c1d494c118603dd-3" value="System (GUI, Appointment)" style="swimlane;html=1;startSize=20;" parent="1c1d494c118603dd-1" vertex="1">
          <mxGeometry x="250" y="20" width="250" height="1130" as="geometry" />
        </mxCell>
        <mxCell id="KbDHJAMVQJwJWBfrR8Hl-8" value="" style="rhombus;whiteSpace=wrap;html=1;" parent="1c1d494c118603dd-3" vertex="1">
          <mxGeometry x="110" y="170" width="50" height="40" as="geometry" />
        </mxCell>
        <mxCell id="KbDHJAMVQJwJWBfrR8Hl-9" value="Correct?" style="text;html=1;align=center;verticalAlign=middle;whiteSpace=wrap;rounded=0;" parent="1c1d494c118603dd-3" vertex="1">
          <mxGeometry x="160" y="170" width="70" height="30" as="geometry" />
        </mxCell>
        <mxCell id="MPAdA7pHePFHHVDjgnxd-84" style="edgeStyle=orthogonalEdgeStyle;rounded=0;orthogonalLoop=1;jettySize=auto;html=1;entryX=0.5;entryY=0;entryDx=0;entryDy=0;" parent="1c1d494c118603dd-3" source="KbDHJAMVQJwJWBfrR8Hl-16" target="KbDHJAMVQJwJWBfrR8Hl-8" edge="1">
          <mxGeometry relative="1" as="geometry" />
        </mxCell>
        <mxCell id="KbDHJAMVQJwJWBfrR8Hl-16" value="Verify Credentials" style="rounded=1;whiteSpace=wrap;html=1;shadow=0;comic=0;labelBackgroundColor=none;strokeWidth=1;fontFamily=Verdana;fontSize=12;align=center;arcSize=50;" parent="1c1d494c118603dd-3" vertex="1">
          <mxGeometry x="85" y="100" width="100" height="30" as="geometry" />
        </mxCell>
        <mxCell id="KbDHJAMVQJwJWBfrR8Hl-18" value="" style="endArrow=classic;html=1;rounded=0;" parent="1c1d494c118603dd-3" edge="1">
          <mxGeometry width="50" height="50" relative="1" as="geometry">
            <mxPoint x="110" y="189.41" as="sourcePoint" />
            <mxPoint x="-30" y="189" as="targetPoint" />
          </mxGeometry>
        </mxCell>
        <mxCell id="KbDHJAMVQJwJWBfrR8Hl-20" value="Yes" style="text;html=1;align=center;verticalAlign=middle;whiteSpace=wrap;rounded=0;" parent="1c1d494c118603dd-3" vertex="1">
          <mxGeometry x="120" y="200" width="70" height="30" as="geometry" />
        </mxCell>
        <mxCell id="MPAdA7pHePFHHVDjgnxd-19" value="No" style="text;html=1;align=center;verticalAlign=middle;whiteSpace=wrap;rounded=0;" parent="1c1d494c118603dd-3" vertex="1">
          <mxGeometry x="25" y="160" width="70" height="30" as="geometry" />
        </mxCell>
        <mxCell id="MPAdA7pHePFHHVDjgnxd-101" value="Is ED under capacity?" style="text;html=1;align=center;verticalAlign=middle;whiteSpace=wrap;rounded=0;" parent="1c1d494c118603dd-3" vertex="1">
          <mxGeometry x="110" y="570" width="70" height="30" as="geometry" />
        </mxCell>
        <mxCell id="MPAdA7pHePFHHVDjgnxd-106" style="edgeStyle=orthogonalEdgeStyle;rounded=0;orthogonalLoop=1;jettySize=auto;html=1;" parent="1c1d494c118603dd-3" source="MPAdA7pHePFHHVDjgnxd-100" edge="1">
          <mxGeometry relative="1" as="geometry">
            <mxPoint x="-70" y="689.9999999999998" as="targetPoint" />
          </mxGeometry>
        </mxCell>
        <mxCell id="MPAdA7pHePFHHVDjgnxd-112" style="edgeStyle=orthogonalEdgeStyle;rounded=0;orthogonalLoop=1;jettySize=auto;html=1;exitX=0.5;exitY=1;exitDx=0;exitDy=0;" parent="1c1d494c118603dd-3" source="MPAdA7pHePFHHVDjgnxd-100" edge="1">
          <mxGeometry relative="1" as="geometry">
            <mxPoint x="145.35294117647072" y="699.9999999999998" as="targetPoint" />
          </mxGeometry>
        </mxCell>
        <mxCell id="MPAdA7pHePFHHVDjgnxd-100" value="" style="rhombus;whiteSpace=wrap;html=1;" parent="1c1d494c118603dd-3" vertex="1">
          <mxGeometry x="120" y="605" width="50" height="40" as="geometry" />
        </mxCell>
        <mxCell id="MPAdA7pHePFHHVDjgnxd-111" value="Yes" style="text;html=1;align=center;verticalAlign=middle;whiteSpace=wrap;rounded=0;" parent="1c1d494c118603dd-3" vertex="1">
          <mxGeometry x="15" y="590" width="70" height="30" as="geometry" />
        </mxCell>
        <mxCell id="MPAdA7pHePFHHVDjgnxd-113" value="No" style="text;html=1;align=center;verticalAlign=middle;whiteSpace=wrap;rounded=0;" parent="1c1d494c118603dd-3" vertex="1">
          <mxGeometry x="135" y="650" width="70" height="30" as="geometry" />
        </mxCell>
        <mxCell id="MPAdA7pHePFHHVDjgnxd-116" style="edgeStyle=orthogonalEdgeStyle;rounded=0;orthogonalLoop=1;jettySize=auto;html=1;" parent="1c1d494c118603dd-3" target="MPAdA7pHePFHHVDjgnxd-114" edge="1">
          <mxGeometry relative="1" as="geometry">
            <mxPoint x="75" y="729.9999999999998" as="sourcePoint" />
          </mxGeometry>
        </mxCell>
        <mxCell id="MPAdA7pHePFHHVDjgnxd-119" style="edgeStyle=orthogonalEdgeStyle;rounded=0;orthogonalLoop=1;jettySize=auto;html=1;" parent="1c1d494c118603dd-3" source="MPAdA7pHePFHHVDjgnxd-114" edge="1">
          <mxGeometry relative="1" as="geometry">
            <mxPoint x="800" y="815" as="targetPoint" />
          </mxGeometry>
        </mxCell>
        <mxCell id="MPAdA7pHePFHHVDjgnxd-114" value="Appoinment Booked" style="rounded=1;whiteSpace=wrap;html=1;shadow=0;comic=0;labelBackgroundColor=none;strokeWidth=1;fontFamily=Verdana;fontSize=12;align=center;arcSize=50;" parent="1c1d494c118603dd-3" vertex="1">
          <mxGeometry x="25" y="800" width="100" height="30" as="geometry" />
        </mxCell>
        <mxCell id="MPAdA7pHePFHHVDjgnxd-115" value="" style="html=1;points=[[0,0,0,0,5],[0,1,0,0,-5],[1,0,0,0,5],[1,1,0,0,-5]];perimeter=orthogonalPerimeter;outlineConnect=0;targetShapes=umlLifeline;portConstraint=eastwest;newEdgeStyle={&quot;curved&quot;:0,&quot;rounded&quot;:0};direction=south;strokeColor=#000000;fillColor=#000000;" parent="1c1d494c118603dd-3" vertex="1">
          <mxGeometry x="20" y="710" width="210" height="10" as="geometry" />
        </mxCell>
        <mxCell id="MPAdA7pHePFHHVDjgnxd-117" style="edgeStyle=orthogonalEdgeStyle;rounded=0;orthogonalLoop=1;jettySize=auto;html=1;" parent="1c1d494c118603dd-3" target="MPAdA7pHePFHHVDjgnxd-118" edge="1">
          <mxGeometry relative="1" as="geometry">
            <mxPoint x="185" y="729.9999999999998" as="sourcePoint" />
            <Array as="points">
              <mxPoint x="185" y="740" />
              <mxPoint x="185" y="740" />
            </Array>
          </mxGeometry>
        </mxCell>
        <mxCell id="MPAdA7pHePFHHVDjgnxd-118" value="Update ED Capacity" style="rounded=1;whiteSpace=wrap;html=1;shadow=0;comic=0;labelBackgroundColor=none;strokeWidth=1;fontFamily=Verdana;fontSize=12;align=center;arcSize=50;" parent="1c1d494c118603dd-3" vertex="1">
          <mxGeometry x="135" y="770" width="100" height="30" as="geometry" />
        </mxCell>
        <mxCell id="MPAdA7pHePFHHVDjgnxd-131" value="Visit Recorded" style="rounded=1;whiteSpace=wrap;html=1;shadow=0;comic=0;labelBackgroundColor=none;strokeWidth=1;fontFamily=Verdana;fontSize=12;align=center;arcSize=50;" parent="1c1d494c118603dd-3" vertex="1">
          <mxGeometry x="90" y="950" width="100" height="30" as="geometry" />
        </mxCell>
        <mxCell id="1c1d494c118603dd-4" value="Triage" style="swimlane;html=1;startSize=20;" parent="1c1d494c118603dd-1" vertex="1">
          <mxGeometry x="500" y="20" width="250" height="1130" as="geometry" />
        </mxCell>
        <mxCell id="MPAdA7pHePFHHVDjgnxd-57" style="edgeStyle=orthogonalEdgeStyle;rounded=0;orthogonalLoop=1;jettySize=auto;html=1;entryX=0.5;entryY=0;entryDx=0;entryDy=0;" parent="1c1d494c118603dd-4" source="MPAdA7pHePFHHVDjgnxd-54" target="MPAdA7pHePFHHVDjgnxd-55" edge="1">
          <mxGeometry relative="1" as="geometry" />
        </mxCell>
        <mxCell id="MPAdA7pHePFHHVDjgnxd-54" value="Receive Triage Request" style="rounded=1;whiteSpace=wrap;html=1;shadow=0;comic=0;labelBackgroundColor=none;strokeWidth=1;fontFamily=Verdana;fontSize=12;align=center;arcSize=50;" parent="1c1d494c118603dd-4" vertex="1">
          <mxGeometry x="70" y="310" width="100" height="30" as="geometry" />
        </mxCell>
        <mxCell id="MPAdA7pHePFHHVDjgnxd-55" value="Notify Nurse" style="rounded=1;whiteSpace=wrap;html=1;shadow=0;comic=0;labelBackgroundColor=none;strokeWidth=1;fontFamily=Verdana;fontSize=12;align=center;arcSize=50;" parent="1c1d494c118603dd-4" vertex="1">
          <mxGeometry x="70" y="380" width="100" height="30" as="geometry" />
        </mxCell>
        <mxCell id="MPAdA7pHePFHHVDjgnxd-61" value="Conduct Triage" style="rounded=1;whiteSpace=wrap;html=1;shadow=0;comic=0;labelBackgroundColor=none;strokeWidth=1;fontFamily=Verdana;fontSize=12;align=center;arcSize=50;" parent="1c1d494c118603dd-4" vertex="1">
          <mxGeometry x="130" y="460" width="100" height="30" as="geometry" />
        </mxCell>
        <mxCell id="MPAdA7pHePFHHVDjgnxd-18" style="edgeStyle=orthogonalEdgeStyle;rounded=0;orthogonalLoop=1;jettySize=auto;html=1;exitX=0.5;exitY=1;exitDx=0;exitDy=0;entryX=1;entryY=0.75;entryDx=0;entryDy=0;" parent="1c1d494c118603dd-1" source="KbDHJAMVQJwJWBfrR8Hl-8" target="KbDHJAMVQJwJWBfrR8Hl-19" edge="1">
          <mxGeometry relative="1" as="geometry" />
        </mxCell>
        <mxCell id="MPAdA7pHePFHHVDjgnxd-87" style="edgeStyle=orthogonalEdgeStyle;rounded=0;orthogonalLoop=1;jettySize=auto;html=1;entryX=0;entryY=0.5;entryDx=0;entryDy=0;" parent="1c1d494c118603dd-1" source="KbDHJAMVQJwJWBfrR8Hl-19" target="MPAdA7pHePFHHVDjgnxd-54" edge="1">
          <mxGeometry relative="1" as="geometry">
            <Array as="points">
              <mxPoint x="170" y="345" />
            </Array>
          </mxGeometry>
        </mxCell>
        <mxCell id="7dekQJsAm8iuwObJnSA8-31" value="Doctor" style="swimlane;html=1;startSize=20;" parent="1" vertex="1">
          <mxGeometry x="1040" y="40" width="250" height="1130" as="geometry" />
        </mxCell>
        <mxCell id="7dekQJsAm8iuwObJnSA8-60" value="" style="rounded=0;whiteSpace=wrap;html=1;" parent="7dekQJsAm8iuwObJnSA8-31" vertex="1">
          <mxGeometry y="-20" width="250" height="20" as="geometry" />
        </mxCell>
        <mxCell id="MPAdA7pHePFHHVDjgnxd-125" style="edgeStyle=orthogonalEdgeStyle;rounded=0;orthogonalLoop=1;jettySize=auto;html=1;exitX=0.5;exitY=1;exitDx=0;exitDy=0;" parent="7dekQJsAm8iuwObJnSA8-31" source="MPAdA7pHePFHHVDjgnxd-122" edge="1">
          <mxGeometry relative="1" as="geometry">
            <mxPoint x="109.47058823529414" y="860" as="targetPoint" />
          </mxGeometry>
        </mxCell>
        <mxCell id="MPAdA7pHePFHHVDjgnxd-122" value="Doctor Receive Notification" style="rounded=1;whiteSpace=wrap;html=1;shadow=0;comic=0;labelBackgroundColor=none;strokeWidth=1;fontFamily=Verdana;fontSize=12;align=center;arcSize=50;" parent="7dekQJsAm8iuwObJnSA8-31" vertex="1">
          <mxGeometry x="60" y="800" width="100" height="40" as="geometry" />
        </mxCell>
        <mxCell id="MPAdA7pHePFHHVDjgnxd-126" style="edgeStyle=orthogonalEdgeStyle;rounded=0;orthogonalLoop=1;jettySize=auto;html=1;" parent="7dekQJsAm8iuwObJnSA8-31" source="MPAdA7pHePFHHVDjgnxd-124" edge="1">
          <mxGeometry relative="1" as="geometry">
            <mxPoint x="-790" y="885" as="targetPoint" />
          </mxGeometry>
        </mxCell>
        <mxCell id="MPAdA7pHePFHHVDjgnxd-128" style="edgeStyle=orthogonalEdgeStyle;rounded=0;orthogonalLoop=1;jettySize=auto;html=1;" parent="7dekQJsAm8iuwObJnSA8-31" source="MPAdA7pHePFHHVDjgnxd-124" edge="1">
          <mxGeometry relative="1" as="geometry">
            <mxPoint x="110" y="950" as="targetPoint" />
          </mxGeometry>
        </mxCell>
        <mxCell id="MPAdA7pHePFHHVDjgnxd-124" value="Meet Patient" style="rounded=1;whiteSpace=wrap;html=1;shadow=0;comic=0;labelBackgroundColor=none;strokeWidth=1;fontFamily=Verdana;fontSize=12;align=center;arcSize=50;" parent="7dekQJsAm8iuwObJnSA8-31" vertex="1">
          <mxGeometry x="60" y="870" width="100" height="30" as="geometry" />
        </mxCell>
        <mxCell id="MPAdA7pHePFHHVDjgnxd-130" style="edgeStyle=orthogonalEdgeStyle;rounded=0;orthogonalLoop=1;jettySize=auto;html=1;" parent="7dekQJsAm8iuwObJnSA8-31" source="MPAdA7pHePFHHVDjgnxd-129" edge="1">
          <mxGeometry relative="1" as="geometry">
            <mxPoint x="-550" y="965" as="targetPoint" />
          </mxGeometry>
        </mxCell>
        <mxCell id="MPAdA7pHePFHHVDjgnxd-132" style="edgeStyle=orthogonalEdgeStyle;rounded=0;orthogonalLoop=1;jettySize=auto;html=1;" parent="7dekQJsAm8iuwObJnSA8-31" source="MPAdA7pHePFHHVDjgnxd-129" edge="1">
          <mxGeometry relative="1" as="geometry">
            <mxPoint x="-880" y="1030" as="targetPoint" />
            <Array as="points">
              <mxPoint x="110" y="1000" />
              <mxPoint x="-879" y="1000" />
              <mxPoint x="-879" y="1030" />
            </Array>
          </mxGeometry>
        </mxCell>
        <mxCell id="MPAdA7pHePFHHVDjgnxd-129" value="Prescribe Medication" style="rounded=1;whiteSpace=wrap;html=1;shadow=0;comic=0;labelBackgroundColor=none;strokeWidth=1;fontFamily=Verdana;fontSize=12;align=center;arcSize=50;" parent="7dekQJsAm8iuwObJnSA8-31" vertex="1">
          <mxGeometry x="60" y="950" width="100" height="30" as="geometry" />
        </mxCell>
        <mxCell id="MPAdA7pHePFHHVDjgnxd-1" value="Nurse" style="swimlane;html=1;startSize=20;" parent="1" vertex="1">
          <mxGeometry x="790" y="40" width="250" height="1130" as="geometry" />
        </mxCell>
        <mxCell id="MPAdA7pHePFHHVDjgnxd-2" value="" style="rounded=0;whiteSpace=wrap;html=1;" parent="MPAdA7pHePFHHVDjgnxd-1" vertex="1">
          <mxGeometry y="-20" width="250" height="20" as="geometry" />
        </mxCell>
        <mxCell id="MPAdA7pHePFHHVDjgnxd-59" value="Receive Notification" style="rounded=1;whiteSpace=wrap;html=1;shadow=0;comic=0;labelBackgroundColor=none;strokeWidth=1;fontFamily=Verdana;fontSize=12;align=center;arcSize=50;" parent="MPAdA7pHePFHHVDjgnxd-1" vertex="1">
          <mxGeometry x="60" y="380" width="100" height="30" as="geometry" />
        </mxCell>
        <mxCell id="MPAdA7pHePFHHVDjgnxd-64" style="edgeStyle=orthogonalEdgeStyle;rounded=0;orthogonalLoop=1;jettySize=auto;html=1;" parent="MPAdA7pHePFHHVDjgnxd-1" source="MPAdA7pHePFHHVDjgnxd-63" edge="1">
          <mxGeometry relative="1" as="geometry">
            <mxPoint x="-570" y="530" as="targetPoint" />
          </mxGeometry>
        </mxCell>
        <mxCell id="MPAdA7pHePFHHVDjgnxd-97" style="edgeStyle=orthogonalEdgeStyle;rounded=0;orthogonalLoop=1;jettySize=auto;html=1;exitX=0.5;exitY=1;exitDx=0;exitDy=0;" parent="MPAdA7pHePFHHVDjgnxd-1" source="MPAdA7pHePFHHVDjgnxd-63" edge="1">
          <mxGeometry relative="1" as="geometry">
            <mxPoint x="119.47058823529414" y="599.9999999999998" as="targetPoint" />
          </mxGeometry>
        </mxCell>
        <mxCell id="MPAdA7pHePFHHVDjgnxd-63" value="" style="rhombus;whiteSpace=wrap;html=1;" parent="MPAdA7pHePFHHVDjgnxd-1" vertex="1">
          <mxGeometry x="95" y="510" width="50" height="40" as="geometry" />
        </mxCell>
        <mxCell id="MPAdA7pHePFHHVDjgnxd-65" value="Need to see Doctor?" style="text;html=1;align=center;verticalAlign=middle;whiteSpace=wrap;rounded=0;" parent="MPAdA7pHePFHHVDjgnxd-1" vertex="1">
          <mxGeometry x="145" y="515" width="70" height="30" as="geometry" />
        </mxCell>
        <mxCell id="MPAdA7pHePFHHVDjgnxd-91" style="edgeStyle=orthogonalEdgeStyle;rounded=0;orthogonalLoop=1;jettySize=auto;html=1;exitX=0.5;exitY=1;exitDx=0;exitDy=0;entryX=0.5;entryY=0;entryDx=0;entryDy=0;" parent="MPAdA7pHePFHHVDjgnxd-1" source="MPAdA7pHePFHHVDjgnxd-89" target="MPAdA7pHePFHHVDjgnxd-63" edge="1">
          <mxGeometry relative="1" as="geometry" />
        </mxCell>
        <mxCell id="MPAdA7pHePFHHVDjgnxd-89" value="Review Results" style="rounded=1;whiteSpace=wrap;html=1;shadow=0;comic=0;labelBackgroundColor=none;strokeWidth=1;fontFamily=Verdana;fontSize=12;align=center;arcSize=50;" parent="MPAdA7pHePFHHVDjgnxd-1" vertex="1">
          <mxGeometry x="70" y="460" width="100" height="30" as="geometry" />
        </mxCell>
        <mxCell id="MPAdA7pHePFHHVDjgnxd-92" value="No" style="text;html=1;align=center;verticalAlign=middle;whiteSpace=wrap;rounded=0;" parent="MPAdA7pHePFHHVDjgnxd-1" vertex="1">
          <mxGeometry x="20" y="500" width="70" height="30" as="geometry" />
        </mxCell>
        <mxCell id="MPAdA7pHePFHHVDjgnxd-104" style="edgeStyle=orthogonalEdgeStyle;rounded=0;orthogonalLoop=1;jettySize=auto;html=1;" parent="MPAdA7pHePFHHVDjgnxd-1" source="MPAdA7pHePFHHVDjgnxd-98" edge="1">
          <mxGeometry relative="1" as="geometry">
            <mxPoint x="-330" y="625" as="targetPoint" />
          </mxGeometry>
        </mxCell>
        <mxCell id="MPAdA7pHePFHHVDjgnxd-98" value="Book Appointment" style="rounded=1;whiteSpace=wrap;html=1;shadow=0;comic=0;labelBackgroundColor=none;strokeWidth=1;fontFamily=Verdana;fontSize=12;align=center;arcSize=50;" parent="MPAdA7pHePFHHVDjgnxd-1" vertex="1">
          <mxGeometry x="70" y="610" width="100" height="30" as="geometry" />
        </mxCell>
        <mxCell id="M02GWfUpdfftsdRwG73s-1" value="Yes" style="text;html=1;align=center;verticalAlign=middle;whiteSpace=wrap;rounded=0;" parent="MPAdA7pHePFHHVDjgnxd-1" vertex="1">
          <mxGeometry x="120" y="560" width="70" height="30" as="geometry" />
        </mxCell>
        <mxCell id="MPAdA7pHePFHHVDjgnxd-58" style="edgeStyle=orthogonalEdgeStyle;rounded=0;orthogonalLoop=1;jettySize=auto;html=1;entryX=0;entryY=0.5;entryDx=0;entryDy=0;" parent="1" source="MPAdA7pHePFHHVDjgnxd-55" target="MPAdA7pHePFHHVDjgnxd-59" edge="1">
          <mxGeometry relative="1" as="geometry">
            <mxPoint x="850" y="504.9999999999998" as="targetPoint" />
          </mxGeometry>
        </mxCell>
        <mxCell id="MPAdA7pHePFHHVDjgnxd-88" style="edgeStyle=orthogonalEdgeStyle;rounded=0;orthogonalLoop=1;jettySize=auto;html=1;exitX=0.5;exitY=1;exitDx=0;exitDy=0;entryX=0.5;entryY=0;entryDx=0;entryDy=0;" parent="1" source="MPAdA7pHePFHHVDjgnxd-59" target="MPAdA7pHePFHHVDjgnxd-61" edge="1">
          <mxGeometry relative="1" as="geometry" />
        </mxCell>
        <mxCell id="MPAdA7pHePFHHVDjgnxd-90" style="edgeStyle=orthogonalEdgeStyle;rounded=0;orthogonalLoop=1;jettySize=auto;html=1;exitX=1;exitY=0.5;exitDx=0;exitDy=0;entryX=0;entryY=0.5;entryDx=0;entryDy=0;" parent="1" source="MPAdA7pHePFHHVDjgnxd-61" target="MPAdA7pHePFHHVDjgnxd-89" edge="1">
          <mxGeometry relative="1" as="geometry" />
        </mxCell>
      </root>
    </mxGraphModel>
  </diagram>
</mxfile>
